<svg xmlns="http://www.w3.org/2000/svg" viewBox="0 0 512 512">
  <defs>
    <radialGradient id="bg" cx="50%" cy="42%" r="64%">
      <stop offset="0%" stop-color="#0e2b37"/>
      <stop offset="55%" stop-color="#071324"/>
      <stop offset="100%" stop-color="#070816"/>
    </radialGradient>
    <linearGradient id="g" x1="115" y1="76" x2="400" y2="438" gradientUnits="userSpaceOnUse">
      <stop stop-color="#7df9ff"/>
      <stop offset=".52" stop-color="#22d3ee"/>
      <stop offset="1" stop-color="#8b5cf6"/>
    </linearGradient>
    <filter id="glow" x="-60%" y="-60%" width="220%" height="220%">
      <feGaussianBlur stdDeviation="10" result="blur"/>
      <feMerge><feMergeNode in="blur"/><feMergeNode in="SourceGraphic"/></feMerge>
    </filter>
  </defs>
  <rect width="512" height="512" rx="128" fill="url(#bg)"/>
  <circle cx="256" cy="256" r="180" fill="none" stroke="#22d3ee" stroke-width="10" opacity=".38"/>
  <path d="M175 91v330h48V250l126 177h61L283 254c45-13 75-46 75-86 0-51-42-77-110-77h-73Zm48 45h28c35 0 58 12 58 38 0 28-23 43-58 43h-28v-81Z" fill="url(#g)" filter="url(#glow)"/>
  <path d="M315 102 391 74l-33 75M119 396l83 34-42-79M390 378l55 53-77-13" fill="none" stroke="#7df9ff" stroke-width="15" stroke-linecap="round" stroke-linejoin="round" opacity=".72"/>
</svg>